<svg width="20" height="24" viewBox="0 0 20 24" fill="none" xmlns="http://www.w3.org/2000/svg">
<g id="Apple svg" clip-path="url(#clip0_170_6058)">
<g id="Group">
<path id="Vector" d="M19.1485 8.18824C17.5493 9.17647 16.5615 10.8706 16.5615 12.7529C16.5615 14.8706 17.8315 16.8 19.76 17.6C19.3837 18.8235 18.8193 19.9529 18.1137 20.9882C17.0789 22.4471 15.9971 23.9529 14.3979 23.9529C12.7986 23.9529 12.3283 23.0118 10.4468 23.0118C8.61242 23.0118 7.95392 24 6.44876 24C4.9436 24 3.90881 22.6353 2.73291 20.9412C1.18071 18.5882 0.287026 15.8588 0.23999 12.9882C0.23999 8.32941 3.2503 5.83529 6.26062 5.83529C7.85985 5.83529 9.17686 6.87059 10.1646 6.87059C11.1053 6.87059 12.6105 5.78824 14.3979 5.78824C16.2793 5.74118 18.0667 6.63529 19.1485 8.18824ZM13.5512 3.81176C14.3508 2.87059 14.7742 1.69412 14.8212 0.470588C14.8212 0.329412 14.8212 0.141176 14.7742 0C13.4101 0.141176 12.1401 0.8 11.2464 1.83529C10.4468 2.72941 9.97647 3.85882 9.92944 5.08235C9.92944 5.22353 9.92944 5.36471 9.97647 5.50588C10.0705 5.50588 10.2117 5.55294 10.3057 5.55294C11.5757 5.45882 12.7516 4.8 13.5512 3.81176Z" fill="black"/>
</g>
</g>
<defs>
<clipPath id="clip0_170_6058">
<rect width="19.52" height="24" fill="white" transform="translate(0.23999)"/>
</clipPath>
</defs>
</svg>
